<svg width="300" height="120" viewBox="0 0 300 120" xmlns="http://www.w3.org/2000/svg">
  <defs>
    <linearGradient id="textGradient" x1="0%" y1="0%" x2="100%" y2="0%">
      <stop offset="0%" style="stop-color:#667eea"/>
      <stop offset="50%" style="stop-color:#764ba2"/>
      <stop offset="100%" style="stop-color:#f093fb"/>
    </linearGradient>
    <linearGradient id="bar1" x1="0%" y1="0%" x2="0%" y2="100%">
      <stop offset="0%" style="stop-color:#ff6b6b"/>
      <stop offset="100%" style="stop-color:#ff8e8e"/>
    </linearGradient>
    <linearGradient id="bar2" x1="0%" y1="0%" x2="0%" y2="100%">
      <stop offset="0%" style="stop-color:#4ecdc4"/>
      <stop offset="100%" style="stop-color:#6ed5cd"/>
    </linearGradient>
    <linearGradient id="bar3" x1="0%" y1="0%" x2="0%" y2="100%">
      <stop offset="0%" style="stop-color:#45b7d1"/>
      <stop offset="100%" style="stop-color:#68c5da"/>
    </linearGradient>
    <linearGradient id="bar4" x1="0%" y1="0%" x2="0%" y2="100%">
      <stop offset="0%" style="stop-color:#96ceb4"/>
      <stop offset="100%" style="stop-color:#a8d6c1"/>
    </linearGradient>
    <linearGradient id="bar5" x1="0%" y1="0%" x2="0%" y2="100%">
      <stop offset="0%" style="stop-color:#feca57"/>
      <stop offset="100%" style="stop-color:#fed474"/>
    </linearGradient>
    <linearGradient id="bar6" x1="0%" y1="0%" x2="0%" y2="100%">
      <stop offset="0%" style="stop-color:#ff9ff3"/>
      <stop offset="100%" style="stop-color:#ffb3f5"/>
    </linearGradient>
    <linearGradient id="bar7" x1="0%" y1="0%" x2="0%" y2="100%">
      <stop offset="0%" style="stop-color:#54a0ff"/>
      <stop offset="100%" style="stop-color:#74b0ff"/>
    </linearGradient>
  </defs>
  
  <!-- Equalizer bars -->
  <rect x="60" y="25" width="12" height="30" rx="6" fill="url(#bar1)"/>
  <rect x="76" y="15" width="12" height="50" rx="6" fill="url(#bar2)"/>
  <rect x="92" y="20" width="12" height="40" rx="6" fill="url(#bar3)"/>
  <rect x="108" y="10" width="12" height="60" rx="6" fill="url(#bar4)"/>
  <rect x="124" y="25" width="12" height="35" rx="6" fill="url(#bar5)"/>
  <rect x="140" y="18" width="12" height="45" rx="6" fill="url(#bar6)"/>
  <rect x="156" y="12" width="12" height="55" rx="6" fill="url(#bar7)"/>
  
  <!-- AI Chorus text -->
  <text x="150" y="95" text-anchor="middle" font-family="Arial, sans-serif" font-size="28" font-weight="bold" fill="url(#textGradient)">AI Chorus</text>
</svg>
